<svg width="50" height="52" viewBox="0 0 50 52" fill="none" xmlns="http://www.w3.org/2000/svg">
<path d="M1.17969 14.1484C2.09115 14.2786 2.88542 14.3828 3.5625 14.4609C4.23958 14.5391 4.79948 14.6042 5.24219 14.6562C5.76302 14.7083 6.20573 14.7474 6.57031 14.7734C6.98698 14.8255 7.49479 14.7995 8.09375 14.6953C8.71875 14.5911 9.38281 14.487 10.0859 14.3828C10.7891 14.2526 11.5182 14.1484 12.2734 14.0703C13.0286 13.9922 13.7578 13.9922 14.4609 14.0703C14.9297 14.1224 15.5286 14.2266 16.2578 14.3828C16.987 14.5391 17.7552 14.7865 18.5625 15.125C19.3958 15.4635 20.2292 15.9062 21.0625 16.4531C21.8958 17 22.651 17.6901 23.3281 18.5234C24.0052 19.3568 24.5651 20.3464 25.0078 21.4922C25.4505 22.638 25.6979 23.9792 25.75 25.5156C25.8281 27.8073 25.6198 29.8906 25.125 31.7656C24.6302 33.6406 23.862 35.2422 22.8203 36.5703C21.8047 37.8984 20.5156 38.9401 18.9531 39.6953C17.3906 40.4505 15.5677 40.8672 13.4844 40.9453C11.8958 41.0755 10.3333 41.1927 8.79688 41.2969C8.14583 41.349 7.45573 41.388 6.72656 41.4141C6.02344 41.4401 5.32031 41.4661 4.61719 41.4922C3.91406 41.4922 3.23698 41.4792 2.58594 41.4531C1.9349 41.4271 1.33594 41.388 0.789062 41.3359C1.38802 41.0495 1.86979 40.763 2.23438 40.4766C2.625 40.1901 2.92448 39.9427 3.13281 39.7344C3.36719 39.474 3.53646 39.2396 3.64062 39.0312C3.69271 38.7448 3.77083 38.1849 3.875 37.3516C3.95312 36.6484 4.05729 35.6458 4.1875 34.3438C4.31771 33.0417 4.47396 31.2708 4.65625 29.0312L4.89062 26.2578C5.02083 24.5391 5.07292 23.1328 5.04688 22.0391C5.04688 20.9453 5.02083 20.0859 4.96875 19.4609C4.89062 18.7318 4.78646 18.1979 4.65625 17.8594C4.55208 17.5729 4.35677 17.2344 4.07031 16.8438C3.8099 16.5312 3.44531 16.1536 2.97656 15.7109C2.53385 15.2422 1.9349 14.7214 1.17969 14.1484ZM9.42188 28.5234C9.47396 30.8411 9.59115 32.625 9.77344 33.875C9.98177 35.099 10.2031 36.0104 10.4375 36.6094C10.724 37.2865 11.0365 37.6901 11.375 37.8203C11.8698 37.8203 12.4297 37.612 13.0547 37.1953C13.6797 36.7526 14.2917 36.0885 14.8906 35.2031C15.5156 34.3177 16.0755 33.2109 16.5703 31.8828C17.0911 30.5547 17.4688 29.0052 17.7031 27.2344C17.9375 25.4635 17.8724 23.901 17.5078 22.5469C17.1432 21.1927 16.6615 20.0599 16.0625 19.1484C15.4635 18.2109 14.8516 17.5078 14.2266 17.0391C13.6016 16.5443 13.1328 16.2969 12.8203 16.2969C12.4557 16.2969 12.1302 16.401 11.8438 16.6094C11.5573 16.7917 11.1536 17.2214 10.6328 17.8984C10.3724 18.263 10.138 18.7839 9.92969 19.4609C9.7474 20.0599 9.59115 20.8542 9.46094 21.8438C9.33073 22.8333 9.29167 24.1094 9.34375 25.6719L9.42188 28.5234Z" fill="#251E1E"/>
<path d="M25.2207 9.54102C26.0866 9.66471 26.8411 9.76367 27.4844 9.83789C28.1276 9.91211 28.6595 9.97396 29.0801 10.0234C29.5749 10.0729 29.9954 10.11 30.3418 10.1348C30.7376 10.1842 31.2201 10.1595 31.7891 10.0605C32.3828 9.96159 33.0137 9.86263 33.6816 9.76367C34.3496 9.63997 35.0423 9.54102 35.7598 9.4668C36.4772 9.39258 37.1699 9.39258 37.8379 9.4668C38.2832 9.51628 38.8522 9.61523 39.5449 9.76367C40.2376 9.91211 40.9674 10.1471 41.7344 10.4688C42.526 10.7904 43.3177 11.2109 44.1094 11.7305C44.901 12.25 45.6185 12.9056 46.2617 13.6973C46.9049 14.4889 47.4368 15.429 47.8574 16.5176C48.278 17.6061 48.513 18.8802 48.5625 20.3398C48.6367 22.5169 48.4388 24.4961 47.9688 26.2773C47.4987 28.0586 46.7689 29.5801 45.7793 30.8418C44.8145 32.1035 43.5898 33.0931 42.1055 33.8105C40.6211 34.528 38.8893 34.9238 36.9102 34.998C35.401 35.1217 33.9167 35.2331 32.457 35.332C31.8385 35.3815 31.1829 35.4186 30.4902 35.4434C29.8223 35.4681 29.1543 35.4928 28.4863 35.5176C27.8184 35.5176 27.1751 35.5052 26.5566 35.4805C25.9382 35.4557 25.3691 35.4186 24.8496 35.3691C25.4186 35.097 25.8763 34.8249 26.2227 34.5527C26.5938 34.2806 26.8783 34.0456 27.0762 33.8477C27.2988 33.6003 27.4596 33.3776 27.5586 33.1797C27.6081 32.9076 27.6823 32.3757 27.7812 31.584C27.8555 30.916 27.9544 29.9635 28.0781 28.7266C28.2018 27.4896 28.3503 25.8073 28.5234 23.6797L28.7461 21.0449C28.8698 19.4121 28.9193 18.0762 28.8945 17.0371C28.8945 15.998 28.8698 15.1816 28.8203 14.5879C28.7461 13.8952 28.6471 13.388 28.5234 13.0664C28.4245 12.7943 28.2389 12.4727 27.9668 12.1016C27.7194 11.8047 27.373 11.446 26.9277 11.0254C26.5072 10.5801 25.9382 10.0853 25.2207 9.54102ZM33.0508 23.1973C33.1003 25.3991 33.2116 27.0938 33.3848 28.2812C33.5827 29.444 33.793 30.3099 34.0156 30.8789C34.2878 31.5221 34.5846 31.9056 34.9062 32.0293C35.3763 32.0293 35.9082 31.8314 36.502 31.4355C37.0957 31.015 37.6771 30.3841 38.2461 29.543C38.8398 28.7018 39.3717 27.6504 39.8418 26.3887C40.3366 25.127 40.6953 23.6549 40.918 21.9727C41.1406 20.2904 41.0788 18.806 40.7324 17.5195C40.3861 16.2331 39.9284 15.1569 39.3594 14.291C38.7904 13.4004 38.209 12.7324 37.6152 12.2871C37.0215 11.8171 36.5762 11.582 36.2793 11.582C35.9329 11.582 35.6237 11.681 35.3516 11.8789C35.0794 12.0521 34.696 12.4603 34.2012 13.1035C33.9538 13.4499 33.7311 13.9447 33.5332 14.5879C33.36 15.1569 33.2116 15.9115 33.0879 16.8516C32.9642 17.7917 32.9271 19.0039 32.9766 20.4883L33.0508 23.1973Z" fill="#251E1E"/>
</svg>
